<?xml version="1.0" encoding="UTF-8" standalone="no"?>
<svg
   xmlns:dc="http://purl.org/dc/elements/1.1/"
   xmlns:cc="http://creativecommons.org/ns#"
   xmlns:rdf="http://www.w3.org/1999/02/22-rdf-syntax-ns#"
   xmlns:svg="http://www.w3.org/2000/svg"
   xmlns="http://www.w3.org/2000/svg"
   width="184.76044mm"
   height="164.88255mm"
   viewBox="0 0 184.76044 164.88255"
   version="1.1"
   id="svg8">
  <defs
     id="defs2" />
  <metadata
     id="metadata5">
    <rdf:RDF>
      <cc:Work
         rdf:about="">
        <dc:format>image/svg+xml</dc:format>
        <dc:type
           rdf:resource="http://purl.org/dc/dcmitype/StillImage" />
        <dc:title></dc:title>
      </cc:Work>
    </rdf:RDF>
  </metadata>
  <g
     id="layer1"
     transform="translate(-566.88236,-49.955487)">
    <g
       id="g1609"
       transform="translate(0,26.458334)">
      <path
         id="path1903"
         d="M 709.90914,77.460666 751.6428,102.2492 v 18.81372 L 709.90914,96.274381 Z"
         style="fill:#333333;fill-opacity:1;stroke:none;stroke-width:0.3;stroke-linecap:butt;stroke-linejoin:round;stroke-miterlimit:4;stroke-dasharray:0.3, 0.899999;stroke-dashoffset:0;stroke-opacity:0.627451" />
      <path
         style="fill:#333333;fill-opacity:1;stroke:none;stroke-width:0.3;stroke-linecap:butt;stroke-linejoin:round;stroke-miterlimit:4;stroke-dasharray:0.3, 0.899999;stroke-dashoffset:0;stroke-opacity:0.627451"
         d="M 608.61603,77.460666 566.88236,102.2492 v 18.81372 l 41.73367,-24.788539 z"
         id="path1905" />
      <path
         id="path1907"
         d="m 658.75657,46.031899 c -17.26119,0.08604 -34.47117,6.27243 -47.65432,17.465396 -12.1848,10.27175 -20.89421,24.79206 -23.59465,40.555855 -2.50042,14.18159 -0.32559,29.16083 6.2531,41.98536 7.6704,15.13014 21.0116,27.17872 36.68664,33.59577 16.56117,6.8637 35.59239,7.57036 52.609,1.9225 13.98362,-4.5784 26.59052,-13.40271 35.43389,-25.19184 7.35082,-9.72891 12.11248,-21.45355 13.34558,-33.59615 1.4687,-13.77592 -1.42058,-27.959815 -8.26895,-40.006685 -7.998,-14.22818 -21.07368,-25.428407 -36.24057,-31.400365 -9.06461,-3.599075 -18.81337,-5.410313 -28.56972,-5.329841 z"
         style="color:#000000;font-style:normal;font-variant:normal;font-weight:normal;font-stretch:normal;font-size:medium;line-height:normal;font-family:sans-serif;font-variant-ligatures:normal;font-variant-position:normal;font-variant-caps:normal;font-variant-numeric:normal;font-variant-alternates:normal;font-feature-settings:normal;text-indent:0;text-align:start;text-decoration:none;text-decoration-line:none;text-decoration-style:solid;text-decoration-color:#000000;letter-spacing:normal;word-spacing:normal;text-transform:none;writing-mode:lr-tb;direction:ltr;text-orientation:mixed;dominant-baseline:auto;baseline-shift:baseline;text-anchor:start;white-space:normal;shape-padding:0;clip-rule:nonzero;display:inline;overflow:visible;visibility:visible;isolation:auto;mix-blend-mode:normal;color-interpolation:sRGB;color-interpolation-filters:linearRGB;solid-color:#000000;solid-opacity:1;vector-effect:none;fill:#ffffff;fill-opacity:1;fill-rule:nonzero;stroke:none;stroke-width:1.95566;stroke-linecap:butt;stroke-linejoin:round;stroke-miterlimit:4;stroke-dasharray:none;stroke-dashoffset:0;stroke-opacity:1;color-rendering:auto;image-rendering:auto;shape-rendering:auto;text-rendering:auto;enable-background:accumulate" />
      <path
         style="fill:#d5e5ff;fill-opacity:1;stroke:none;stroke-width:1.95566;stroke-linecap:butt;stroke-linejoin:round;stroke-miterlimit:4;stroke-dasharray:none;stroke-dashoffset:0;stroke-opacity:1"
         d="m 659.35257,46.708774 a 72.184944,68.977705 0 0 0 -72.18526,68.977706 72.184944,68.977705 0 0 0 23.35207,50.6827 c 0.35994,1.30782 0.47159,2.71333 0.34158,4.06899 -0.0139,0.87299 -0.29366,1.74695 -0.31936,2.58795 1.29189,3.43511 4.40384,5.21831 7.34322,6.42804 2.47907,1.01039 5.00965,1.87958 7.36235,3.23908 3.41892,1.64573 7.06959,2.65958 10.78693,2.81739 2.13032,0.80338 4.39566,0.78292 6.56601,1.41284 1.32622,-0.58315 2.62485,0.5623 3.96875,0.34727 2.4066,0.28598 4.84232,0.24381 7.23678,0.6382 3.67048,-0.37256 7.34179,0.60255 11.00965,0.13798 6.15283,0.40204 12.22306,-1.10018 18.32602,-1.69602 5.09389,-0.71248 9.93458,-2.77738 14.7655,-4.66535 3.59463,-1.03269 6.52013,-3.79315 9.8516,-5.4963 1.55493,-1.43347 1.52522,-3.96428 1.23507,-6.00791 -0.16562,-1.43725 -0.31347,-2.9985 -0.0418,-4.43177 a 72.184944,68.977705 0 0 0 22.58568,-50.06309 72.184944,68.977705 0 0 0 -72.18474,-68.977706 z"
         id="path1909" />
      <path
         style="color:#000000;font-style:normal;font-variant:normal;font-weight:normal;font-stretch:normal;font-size:medium;line-height:normal;font-family:sans-serif;font-variant-ligatures:normal;font-variant-position:normal;font-variant-caps:normal;font-variant-numeric:normal;font-variant-alternates:normal;font-feature-settings:normal;text-indent:0;text-align:start;text-decoration:none;text-decoration-line:none;text-decoration-style:solid;text-decoration-color:#000000;letter-spacing:normal;word-spacing:normal;text-transform:none;writing-mode:lr-tb;direction:ltr;text-orientation:mixed;dominant-baseline:auto;baseline-shift:baseline;text-anchor:start;white-space:normal;shape-padding:0;clip-rule:nonzero;display:inline;overflow:visible;visibility:visible;isolation:auto;mix-blend-mode:normal;color-interpolation:sRGB;color-interpolation-filters:linearRGB;solid-color:#000000;solid-opacity:1;vector-effect:none;fill:#3c4e7d;fill-opacity:1;fill-rule:nonzero;stroke:none;stroke-width:1.64676;stroke-linecap:butt;stroke-linejoin:round;stroke-miterlimit:4;stroke-dasharray:none;stroke-dashoffset:0;stroke-opacity:1;color-rendering:auto;image-rendering:auto;shape-rendering:auto;text-rendering:auto;enable-background:accumulate"
         d="m 658.85093,56.685893 c -14.53469,0.07244 -29.0264,5.281372 -40.12718,14.706362 -10.26018,8.64928 -17.594,20.87612 -19.8679,34.149945 -2.10548,11.94156 -0.27384,24.55454 5.26573,35.35338 3.57229,7.04647 8.6073,13.29705 14.62562,18.39268 8.72787,3.82582 22.51376,7.91626 41.43155,7.80495 20.37433,-0.11991 37.81368,-7.4085 41.99996,-9.76122 2.54325,-2.36798 4.88201,-4.95641 6.97088,-7.74111 6.18971,-8.19217 10.19901,-18.06445 11.23735,-28.28908 1.23671,-11.59995 -1.19627,-23.543615 -6.96291,-33.687635 -6.73469,-11.98077 -17.74499,-21.41161 -30.5162,-26.44028 -7.6328,-3.03059 -15.84161,-4.555756 -24.0569,-4.487992 z"
         id="path1911" />
      <path
         style="color:#000000;font-style:normal;font-variant:normal;font-weight:normal;font-stretch:normal;font-size:medium;line-height:normal;font-family:sans-serif;font-variant-ligatures:normal;font-variant-position:normal;font-variant-caps:normal;font-variant-numeric:normal;font-variant-alternates:normal;font-feature-settings:normal;text-indent:0;text-align:start;text-decoration:none;text-decoration-line:none;text-decoration-style:solid;text-decoration-color:#000000;letter-spacing:normal;word-spacing:normal;text-transform:none;writing-mode:lr-tb;direction:ltr;text-orientation:mixed;dominant-baseline:auto;baseline-shift:baseline;text-anchor:start;white-space:normal;shape-padding:0;clip-rule:nonzero;display:inline;overflow:visible;visibility:visible;isolation:auto;mix-blend-mode:normal;color-interpolation:sRGB;color-interpolation-filters:linearRGB;solid-color:#000000;solid-opacity:1;vector-effect:none;fill:#5069a8;fill-opacity:1;fill-rule:nonzero;stroke:none;stroke-width:1.81309;stroke-linecap:butt;stroke-linejoin:round;stroke-miterlimit:4;stroke-dasharray:none;stroke-dashoffset:0;stroke-opacity:1;color-rendering:auto;image-rendering:auto;shape-rendering:auto;text-rendering:auto;enable-background:accumulate"
         d="m 658.80012,51.110057 c -16.00277,0.07977 -31.9582,5.814819 -44.18023,16.191778 -11.29649,9.52289 -19.37107,22.98471 -21.87464,37.599245 -2.31815,13.1477 -0.30152,27.03468 5.79758,38.92424 3.93311,7.75821 9.47668,14.6401 16.10288,20.25044 9.60943,4.21224 24.78776,8.71583 45.61634,8.59328 22.43224,-0.13199 41.63303,-8.15678 46.24215,-10.74715 2.80014,-2.60715 5.37512,-5.45703 7.67498,-8.52299 6.8149,-9.01963 11.22916,-19.88906 12.37237,-31.14642 1.36162,-12.77159 -1.3171,-25.921625 -7.6662,-37.090235 -7.41492,-13.19089 -19.53731,-23.57431 -33.59848,-29.110888 -8.40375,-3.336689 -17.44168,-5.015907 -26.48675,-4.9413 z"
         id="path1913" />
      <path
         id="path1915"
         d="m 658.92068,64.338705 c -12.51977,0.0624 -25.00251,4.54922 -34.56441,12.66764 -8.83782,7.45024 -15.15497,17.98209 -17.11364,29.415785 -1.8136,10.28612 -0.23588,21.15058 4.53575,30.45239 3.07707,6.06963 7.41408,11.45369 12.59809,15.84293 7.51794,3.29545 19.39271,6.81884 35.68795,6.72296 17.54987,-0.10328 32.57162,-6.38147 36.17757,-8.40804 2.19068,-2.03971 4.20522,-4.26931 6.00451,-6.66797 5.33164,-7.0565 8.78514,-15.5602 9.67953,-24.36741 1.06527,-9.99186 -1.03043,-20.279785 -5.99765,-29.017555 -5.80107,-10.31989 -15.28502,-18.44335 -26.28578,-22.7749 -6.57467,-2.61047 -13.64551,-3.9242 -20.72192,-3.86583 z"
         style="color:#000000;font-style:normal;font-variant:normal;font-weight:normal;font-stretch:normal;font-size:medium;line-height:normal;font-family:sans-serif;font-variant-ligatures:normal;font-variant-position:normal;font-variant-caps:normal;font-variant-numeric:normal;font-variant-alternates:normal;font-feature-settings:normal;text-indent:0;text-align:start;text-decoration:none;text-decoration-line:none;text-decoration-style:solid;text-decoration-color:#000000;letter-spacing:normal;word-spacing:normal;text-transform:none;writing-mode:lr-tb;direction:ltr;text-orientation:mixed;dominant-baseline:auto;baseline-shift:baseline;text-anchor:start;white-space:normal;shape-padding:0;clip-rule:nonzero;display:inline;overflow:visible;visibility:visible;isolation:auto;mix-blend-mode:normal;color-interpolation:sRGB;color-interpolation-filters:linearRGB;solid-color:#000000;solid-opacity:1;vector-effect:none;fill:#33436b;fill-opacity:1;fill-rule:nonzero;stroke:none;stroke-width:1.41847;stroke-linecap:butt;stroke-linejoin:round;stroke-miterlimit:4;stroke-dasharray:none;stroke-dashoffset:0;stroke-opacity:1;color-rendering:auto;image-rendering:auto;shape-rendering:auto;text-rendering:auto;enable-background:accumulate" />
      <path
         style="fill:#000000;stroke-width:0.0508622"
         d="m 659.3531,45.731057 c -40.37163,0 -73.16401,31.306528 -73.16401,69.954903 0,19.17252 8.07699,36.53146 21.13928,49.16444 0.0941,0.10497 0.18757,0.21049 0.28266,0.3147 0.086,0.0658 0.16914,0.13272 0.25114,0.2 0.26368,0.24981 0.53134,0.49558 0.79893,0.74156 2.15599,2.28025 2.44367,5.25192 1.6278,8.61446 2.02253,4.94311 8.17076,5.97094 12.69278,7.77627 4.03796,2.05577 8.55033,3.37086 12.99093,3.51503 2.03475,0.711 5.05302,0.77837 6.63422,1.26297 1.65997,-0.52338 2.02298,0.43263 3.84318,0.29042 2.49116,0.32038 4.45783,0.10746 7.14375,0.59532 3.59762,-0.42023 7.50321,0.55569 11.01275,0.0889 5.07378,0.39695 10.83014,-0.66238 16.25793,-1.24593 5.92929,-0.42679 11.32306,-2.26705 16.60417,-4.24727 3.95427,-0.81974 6.9034,-3.5132 10.24897,-4.87206 3.23692,-2.59796 0.44673,-6.693 1.55081,-9.98905 0.42045,-1.04152 1.08362,-1.93549 1.8371,-2.7802 13.22221,-12.6547 21.40953,-30.12365 21.40953,-49.42954 0,-38.648375 -32.79029,-69.954903 -73.16192,-69.954903 z m 0,1.954919 c 39.36164,0 71.20702,30.457679 71.20702,67.999984 0,18.78501 -7.9738,35.79623 -20.8721,48.10559 -0.12015,0.19381 -0.22112,0.3951 -0.31316,0.59997 -1.46844,1.93456 -2.15218,4.35523 -2.11101,6.7355 1.12395,2.19712 0.48935,4.24677 -1.34824,5.67666 -4.38713,2.58925 -9.5881,4.78079 -14.8549,5.82342 -2.18051,-0.35632 -3.8227,0.98102 -6.07403,1.16685 -2.26635,0.45398 -4.64625,1.31959 -7.1758,1.16789 -4.76601,0.8973 -9.55841,0.94476 -14.29784,1.12913 -6.75307,-0.93351 -13.73815,0.34793 -20.46489,-1.65055 -1.93138,-0.38829 -0.3166,0.24647 -4.59766,-0.13436 -2.14657,-0.42667 -3.45842,-1.16838 -4.8731,-1.0113 -1.14025,-0.14468 -3.28985,-0.51837 -3.63233,-1.04594 -1.26426,0.0248 -3.17717,-0.88647 -4.02611,-1.04127 -2.03158,-0.68135 -4.10557,-1.53017 -6.4425,-2.21072 -5.28317,-0.4304 -6.3881,-5.8491 -6.86313,-9.96425 1.03796,-1.86603 -1.44746,-1.93641 -1.88516,-3.61374 -0.28956,-0.256 -0.57891,-0.51688 -0.86818,-0.77721 -0.0196,-0.039 -0.0372,-0.0792 -0.0574,-0.11782 -13.35733,-12.36266 -21.65654,-29.67605 -21.65654,-48.83785 0,-37.542305 31.84536,-67.999984 71.20702,-67.999984 z"
         id="path1917" />
      <path
         style="fill:#323c5c;fill-opacity:1;stroke:none;stroke-width:0.264583px;stroke-linecap:butt;stroke-linejoin:miter;stroke-opacity:1"
         d="m 616.3047,169.14041 c 0,0 9.55334,8.43752 43.56494,7.48355 34.0116,-0.95397 45.89777,-8.76781 45.16855,-8.8199 0,0 -12.02714,10.15625 -44.36675,10.95806 -32.33961,0.80181 -44.36674,-9.62171 -44.36674,-9.62171 z"
         id="path2071" />
      <path
         id="rect7859"
         style="fill:#e6e6e6;fill-opacity:1;stroke:#808080;stroke-width:1;stroke-linecap:round;stroke-linejoin:round"
         d="m 618.7548,100.56858 c 29.14642,6.47603 52.05185,4.90445 81.19827,0 3.47729,16.57379 2.42958,31.6213 0,46.09965 -30.71799,8.71588 -51.52799,8.19202 -81.19827,0 -2.42956,-15.00221 -3.47729,-28.47815 0,-46.09965 z" />
      <path
         style="fill:#000000;fill-opacity:0.352941;stroke-width:0.0502202"
         d="m 661.04142,23.797394 c -7.35049,0.07852 -14.7547,0.417827 -21.93786,2.139884 -7.54307,1.617341 -15.07978,3.903158 -21.71378,8.014488 -2.36579,1.544202 -4.37408,3.850137 -5.07546,6.688207 -0.55111,1.868016 -0.82114,3.888955 -0.53087,5.815625 0.84901,0.670031 1.12118,1.918245 0.66959,2.904711 -0.28627,1.220756 -0.74805,2.510659 -0.38206,3.767164 -1.47149,1.806075 -2.71434,3.961596 -4.8788,4.976542 -0.95219,0.67145 -1.78901,1.52525 -2.80856,2.11182 -2.77023,1.79467 -6.01855,3.09337 -8.05828,5.84244 -0.91702,1.6071 0.23489,3.6531 1.76131,4.33722 1.62494,0.91632 3.51726,1.24603 5.35862,1.17143 0.33655,0.88821 1.65776,1.44461 2.30552,0.57122 1.41833,-1.27888 1.88691,-3.62812 3.86889,-4.2192 1.70959,-0.74795 3.87608,-0.62491 5.26053,0.76553 2.20232,1.75289 3.13607,4.6108 3.47637,7.355 0.87617,3.01309 4.2117,4.66699 7.12903,4.24255 2.32694,-0.21207 4.05598,-2.06862 6.20172,-2.78346 2.83558,-1.09403 5.98645,-1.39324 8.94561,-0.67382 2.4168,2.00872 4.41619,4.85413 7.58225,5.65625 2.12731,0.56079 4.32239,-0.6211 5.62833,-2.31437 1.89049,-1.93903 3.85234,-4.03414 6.51391,-4.78901 2.74046,-0.95768 5.67511,-1.15143 8.55361,-1.06587 2.57124,0.42998 4.61095,2.48556 5.95056,4.69464 -0.0503,0.81762 -0.8081,1.34412 -1.01259,2.12123 -1.98717,4.15444 -2.4072,9.0596 -5.32056,12.73033 -0.18493,1.14196 0.33843,2.23333 0.56022,3.33009 0.91475,3.116975 2.28356,6.087235 3.55652,9.048815 0.71795,0.42576 1.32678,-0.46186 1.46808,-1.09571 1.94952,-3.79772 4.54088,-7.509255 4.82126,-11.929685 0.28784,-3.66912 -0.29461,-7.54685 1.24531,-11 0.84456,-1.05996 2.3646,-0.71023 3.43695,-1.37109 1.64696,-0.81832 2.28629,-2.77759 3.73209,-3.82812 0.42292,0.32626 0.6192,0.99341 0.88893,1.48086 1.49601,3.56622 0.77069,7.53011 1.067,11.28677 0.1555,2.60137 0.8577,5.23041 2.45553,7.30231 2.00488,3.051155 4.38423,5.996935 7.55813,7.809935 0.65806,0.28728 1.76374,0.35263 2.02959,-0.50683 0.0886,-0.91917 -1.06961,-1.35326 -0.96016,-2.28621 -0.28175,-2.272935 1.59057,-3.962205 2.09842,-6.035285 0.17016,-0.93936 -0.47836,-1.92887 -1.42959,-2.0164 -1.62449,-0.67848 -2.67452,-2.28974 -3.45426,-3.82896 -2.07476,-4.48302 -1.81026,-9.74 -4.07278,-14.15737 -0.62026,-1.27003 -1.56695,-2.33441 -2.56677,-3.28711 -0.10452,-0.8279 0.9511,-1.02576 1.43075,-1.46793 0.43919,-0.22365 0.83975,-0.6912 1.29978,-0.77621 0.4747,0.38241 0.77538,0.95809 1.2872,1.31641 2.32204,2.1163 5.38957,3.08507 8.40502,3.55228 1.00355,0.29457 2.40658,0.50865 3.07359,-0.5385 0.56553,-0.99329 0.0213,-2.18699 0.32636,-3.2445 0.067,-1.02524 -0.0935,-2.05406 0.0101,-3.07787 1.93065,0.54053 3.65545,-1.05355 5.58578,-0.85986 1.64401,-0.0305 3.33226,-0.1351 4.85919,-0.80584 1.28553,-0.18152 2.88416,-0.62379 3.27072,-2.08576 0.5603,-1.87672 -0.71995,-3.73136 -2.13774,-4.79719 -2.09423,-1.53741 -4.64456,-2.19724 -7.07025,-2.97331 -1.54737,-0.451828 -3.36635,-1.068957 -4.06595,-2.698749 -0.40535,-1.66049 0.62356,-3.272404 0.36667,-4.950769 -0.0347,-0.861717 -0.4928,-1.69096 -1.24447,-2.078528 0.008,-0.579981 0.48838,-1.081463 0.69451,-1.617693 0.67454,-1.181872 1.38977,-2.71582 0.62886,-4.034651 -0.38979,-1.229585 -0.32783,-2.582676 -0.95631,-3.73819 -1.46265,-3.422532 -4.65442,-5.663563 -7.93993,-7.010291 -11.79128,-5.460444 -24.90114,-7.209576 -37.74544,-7.08941 z"
         id="path2005" />
      <g
         id="g7876"
         transform="matrix(0.32558408,0,0,0.35869271,443.73074,30.316729)"
         style="stroke-width:2.7879">
        <path
           d="m 556.20235,290.99428 c -0.10448,-0.003 -0.82517,-0.0281 -0.88888,-0.0185 -0.15365,0.0233 -0.27423,0.10757 -0.42199,0.14284 -0.44652,0.1066 -0.95081,0.13177 -1.42515,0.17643 -0.48158,-0.0645 -0.77248,0.1692 -1.14953,0.29186 -0.46706,0.15195 -0.64038,0.0204 -1.07521,0.30067 -0.22707,0.12362 -0.54173,0.0696 -0.79456,0.13915 -0.14409,0.0396 -0.25736,0.12774 -0.39678,0.17523 -0.47323,0.16121 -0.76092,0.12084 -1.18097,0.38949 -0.89486,0.25207 0.0879,-0.0742 -0.67309,0.33454 -0.69958,0.23972 -0.0656,-0.0251 -0.64441,0.36261 -1.67454,1.12165 3.27114,-2.33214 4.92282,-3.48001 -0.49443,0.31404 -0.91009,0.68318 -1.19631,1.18592 -0.22089,0.58203 -0.21419,1.28227 -0.1799,1.96146 0.0595,0.62021 0.1891,1.25521 0.40989,1.88915 0.35105,0.86014 1.29608,1.40624 2.07704,1.91921 1.31518,0.85831 2.68706,1.51754 4.08886,2.08944 1.62461,0.56243 3.25085,1.10895 4.88103,1.50342 1.79888,0.39848 3.58943,0.74355 5.36824,0.96017 1.91514,0.20116 3.7885,0.22733 5.65244,0.23402 1.91991,0.0752 3.55886,-0.54324 5.1115,-1.19726 0.83023,-0.28041 1.65098,-0.60384 2.37561,-1.03664 0.25169,-0.15034 0.95471,-0.66284 0.71671,-0.49636 -4.94542,3.45951 -6.09264,4.43468 -3.94426,2.66708 1.47809,-1.14909 2.20841,-2.84509 2.79414,-4.64032 0.65953,-2.19265 0.97772,-4.54501 1.44724,-6.82566 0.49839,-2.68611 0.81479,-5.44425 1.18814,-8.18058 0.30352,-2.98899 0.4542,-6.03369 0.25238,-9.17368 -0.0568,-2.11278 -0.30726,-4.26519 -0.50656,-6.4081 -0.10591,-0.94819 -0.31412,-1.91473 -0.38371,-2.85604 0.0331,-0.52368 -0.1601,-1.08775 -0.21122,-1.63142 -0.0868,-1.16593 -0.25586,-2.34265 -0.4685,-3.52949 -0.0747,-1.03959 -0.30679,-2.09899 -0.6027,-3.16387 -0.1775,-0.62826 -0.43337,-1.25578 -0.4992,-1.87543 0,0 6.12599,-3.32217 6.12599,-3.32217 v 0 c -0.1719,0.51529 0.0716,1.08028 0.2512,1.67447 0.3053,1.09591 0.59028,2.20402 0.62898,3.26667 0.17188,1.18987 0.39877,2.38737 0.57403,3.57681 -4.1e-4,0.5649 0.18998,1.1114 0.2954,1.69431 -0.22208,0.8519 0.19824,1.91794 0.18713,2.83503 0.0524,0.93511 0.18851,1.88613 0.24799,2.82138 0.0782,1.22957 0.0551,2.43978 0.12847,3.66871 0.21218,3.18466 0.0426,6.26311 -0.20165,9.31466 -0.3374,2.74082 -0.63949,5.49399 -1.08919,8.19002 -0.48127,2.26824 -0.77483,4.61846 -1.35408,6.84162 -0.50109,1.86367 -1.13478,3.69959 -2.57021,4.92575 -2.77547,2.70597 -6.10494,4.96503 -9.965,6.37145 -1.64377,0.6068 -3.35622,1.12051 -5.34751,0.9905 -1.8906,-0.0395 -3.77978,-0.0461 -5.72532,-0.31073 -1.81666,-0.23802 -3.6486,-0.6055 -5.48635,-1.02452 -1.66741,-0.45363 -3.33723,-0.98126 -4.99572,-1.61266 -1.46276,-0.6282 -2.90133,-1.31228 -4.27594,-2.22028 -0.96864,-0.64354 -2.08529,-1.35369 -2.58265,-2.39837 -0.34016,-0.70188 -0.48128,-1.42647 -0.58825,-2.12701 -0.0988,-0.76708 -0.0781,-1.50019 -0.0387,-2.2307 0.14751,-0.6509 0.44123,-1.15274 0.98064,-1.51664 2.47208,-1.7213 4.59133,-3.71785 7.48485,-4.83357 0.81081,-0.2095 1.62213,-0.42302 2.3962,-0.6944 0.78534,-0.15751 1.51278,-0.42431 2.36422,-0.44164 0.93714,-0.11856 1.83968,-0.31311 2.84114,-0.26758 0,0 -4.92885,4.61952 -4.92885,4.61952 z"
           id="path7862"
           style="opacity:1;fill:#000000;fill-opacity:1;stroke:none;stroke-width:1.11516;stroke-linecap:butt;stroke-linejoin:round;stroke-miterlimit:4;stroke-dasharray:none;stroke-dashoffset:0;stroke-opacity:1" />
        <path
           d="m 625.19134,290.30999 h -3.0464 q -1.00261,0 -1.61961,-0.3085 -0.61699,-0.30849 -0.80981,-1.31111 l -0.77125,-3.62484 q -1.54247,1.38824 -3.00785,2.50654 -1.46535,1.07974 -3.08496,1.85098 -1.61961,0.73268 -3.47059,1.1183 -1.81243,0.38563 -4.04904,0.38563 -2.27515,0 -4.28038,-0.617 -1.96669,-0.65556 -3.43204,-1.92811 -1.46536,-1.27254 -2.35229,-3.20065 -0.84837,-1.96667 -0.84837,-4.62746 0,-2.31373 1.27254,-4.43464 1.27256,-2.15949 4.0876,-3.81767 2.8536,-1.65817 7.44249,-2.69934 4.58889,-1.07975 11.22158,-1.23399 v -3.04641 q 0,-4.55034 -1.96666,-6.86407 -1.9281,-2.35228 -5.74576,-2.35228 -2.50654,0 -4.24184,0.65554 -1.69673,0.61699 -2.96928,1.42681 -1.23399,0.77124 -2.15948,1.4268 -0.88694,0.617 -1.77387,0.617 -0.69411,0 -1.23398,-0.34708 -0.50131,-0.3856 -0.8098,-0.92548 l -1.23399,-2.19805 q 3.23922,-3.12353 6.97975,-4.66601 3.74053,-1.54249 8.29085,-1.54249 3.27779,0 5.8229,1.07973 2.54509,1.07975 4.28038,3.00785 1.73532,1.92812 2.62223,4.66603 0.88693,2.73791 0.88693,6.0157 z m -17.81571,-4.20327 q 1.81242,0 3.31634,-0.34707 1.50393,-0.38562 2.81505,-1.04117 1.34967,-0.69412 2.54511,-1.65817 1.23398,-0.96405 2.39083,-2.19804 v -8.13662 q -4.74314,0.15424 -8.05948,0.77123 -3.31635,0.57845 -5.3987,1.5425 -2.08235,0.96405 -3.04642,2.27517 -0.92548,1.3111 -0.92548,2.93071 0,1.54249 0.50131,2.66079 0.50131,1.11831 1.34967,1.85099 0.84836,0.69412 2.00523,1.04118 1.15687,0.3085 2.50654,0.3085 z"
           style="font-style:normal;font-variant:normal;font-weight:normal;font-stretch:normal;font-size:medium;line-height:1.25;font-family:Lato;-inkscape-font-specification:Lato;letter-spacing:0px;word-spacing:0px;fill:#000000;fill-opacity:1;stroke:none;stroke-width:5.37538"
           id="path7864" />
        <path
           style="font-style:normal;font-weight:normal;font-size:33.5139px;line-height:1.25;font-family:sans-serif;letter-spacing:0px;word-spacing:0px;fill:#000000;fill-opacity:1;stroke:none;stroke-width:5.30619"
           d="m 637.08827,250.74473 c -0.87369,0.17534 -2.08027,-0.46314 -2.72561,0.34227 -0.21473,1.02337 0.0485,2.11055 -0.066,3.16081 0,12.01122 0,24.02245 0,36.03367 1.84742,0 3.69484,0 5.54226,0 -0.0185,-9.81171 0.0487,-19.62368 -0.0503,-29.4351 4.29021,7.69942 8.52805,15.43064 12.95597,23.04817 1.51553,1.59406 4.53136,0.9376 5.22759,-1.16719 3.98813,-7.28007 7.97625,-14.56011 11.96436,-21.84016 -0.10193,9.79782 -0.0259,19.59619 -0.0501,29.39428 1.84637,0 3.69273,0 5.53909,0 0,-13.19461 0,-26.38923 0,-39.58384 -1.93,0.20021 -3.96487,-0.35102 -5.8217,0.34227 -1.44291,1.38282 -1.95423,3.40601 -3.06129,5.03118 -3.81874,7.04972 -7.85784,13.99677 -11.484,21.13976 -0.17318,0.4276 -0.49573,-1.12854 -0.7908,-1.34456 -3.41216,-6.39178 -7.08517,-12.62707 -10.57388,-18.98155 -1.14631,-1.918 -2.13924,-3.99025 -3.4708,-5.76089 -0.92072,-0.61483 -2.09578,-0.42466 -3.13475,-0.37912 z"
           id="path7866" />
        <path
           style="font-style:normal;font-weight:normal;font-size:33.5139px;line-height:1.25;font-family:sans-serif;letter-spacing:0px;word-spacing:0px;fill:#000000;fill-opacity:1;stroke:none;stroke-width:5.30619"
           d="m 683.86289,250.87347 c 0,13.136 0,26.27201 0,39.40801 7.63039,0 15.26078,0 22.89119,0 0,-1.78462 0,-3.56923 0,-5.35384 -5.56736,0 -11.13472,0 -16.70208,0 0,-11.40476 0,-22.80954 0,-34.21431 -2.06305,0 -4.12608,0 -6.18911,0 z"
           id="path7868" />
        <path
           d="m 721.55162,251.24654 v 39.06345 h -6.86406 v -39.06345 z m 1.54248,-12.26277 q 0,1.00262 -0.42418,1.88955 -0.38562,0.84836 -1.07975,1.54247 -0.65554,0.65556 -1.54247,1.04119 -0.88693,0.38562 -1.88955,0.38562 -1.00262,0 -1.88955,-0.38562 -0.84836,-0.38563 -1.54249,-1.04119 -0.65554,-0.69411 -1.04117,-1.54247 -0.38562,-0.88693 -0.38562,-1.88955 0,-1.00262 0.38562,-1.88955 0.38563,-0.9255 1.04117,-1.58106 0.69413,-0.69411 1.54249,-1.07973 0.88693,-0.38562 1.88955,-0.38562 1.00262,0 1.88955,0.38562 0.88693,0.38562 1.54247,1.07973 0.69413,0.65556 1.07975,1.58106 0.42418,0.88693 0.42418,1.88955 z"
           style="font-style:normal;font-variant:normal;font-weight:normal;font-stretch:normal;font-size:medium;line-height:1.25;font-family:Lato;-inkscape-font-specification:Lato;letter-spacing:0px;word-spacing:0px;fill:#000000;fill-opacity:1;stroke:none;stroke-width:5.37538"
           id="path7870" />
        <path
           d="m 733.64929,290.30999 v -39.06345 h 4.08758 q 1.46536,0 1.85098,1.42679 l 0.53988,4.24183 q 2.54511,-2.81503 5.66864,-4.55032 3.16209,-1.73531 7.28824,-1.73531 3.20067,0 5.63007,1.07975 2.46799,1.04118 4.0876,3.00785 1.65816,1.9281 2.50654,4.66601 0.84837,2.73792 0.84837,6.05426 v 24.87259 h -6.86407 V 265.4374 q 0,-4.43465 -2.0438,-6.86406 -2.00523,-2.46797 -6.16995,-2.46797 -3.0464,0 -5.70719,1.46535 -2.62223,1.46536 -4.85883,3.9719 v 28.76737 z"
           style="font-style:normal;font-variant:normal;font-weight:normal;font-stretch:normal;font-size:medium;line-height:1.25;font-family:Lato;-inkscape-font-specification:Lato;letter-spacing:0px;word-spacing:0px;fill:#000000;fill-opacity:1;stroke:none;stroke-width:5.37538"
           id="path7872" />
        <path
           id="path7874"
           style="font-style:normal;font-variant:normal;font-weight:normal;font-stretch:normal;font-size:medium;line-height:1.25;font-family:Lato;-inkscape-font-specification:Lato;letter-spacing:0px;word-spacing:0px;fill:#000000;fill-opacity:1;stroke:none;stroke-width:5.37538"
           d="m 585.51068,238.98377 c 0,0.66841 -0.14139,1.29826 -0.42418,1.88955 -0.25708,0.56557 -0.617,1.07973 -1.07975,1.54247 -0.43703,0.43704 -0.95118,0.7841 -1.54247,1.04119 -0.59129,0.25708 -1.22114,0.38562 -1.88955,0.38562 -0.66841,0 -1.29826,-0.12854 -1.88955,-0.38562 -0.56557,-0.25709 -1.07974,-0.60415 -1.54249,-1.04119 -0.43703,-0.46274 -0.78408,-0.9769 -1.04117,-1.54247 -0.25708,-0.59129 -0.38562,-1.22114 -0.38562,-1.88955 0,-0.66841 0.12854,-1.29826 0.38562,-1.88955 0.25709,-0.617 0.60414,-1.14402 1.04117,-1.58106 0.46275,-0.46274 0.97692,-0.82265 1.54249,-1.07973 0.59129,-0.25708 1.22114,-0.38562 1.88955,-0.38562 0.66841,0 1.29826,0.12854 1.88955,0.38562 0.59129,0.25708 1.10544,0.61699 1.54247,1.07973 0.46275,0.43704 0.82267,0.96406 1.07975,1.58106 0.28279,0.59129 0.42418,1.22114 0.42418,1.88955 z" />
      </g>
      <path
         id="path2007"
         d="m 661.83975,23.52466 c -1.69786,0.0046 -3.39508,0.06028 -5.09167,0.116104 -8.21126,-0.0773 -16.36496,1.30514 -24.29552,3.348551 -1.24939,0.318577 -2.47484,0.723575 -3.70724,1.101379 -4.10101,1.290722 -8.18197,2.784467 -11.85114,5.056634 -0.94032,0.597069 -1.87526,1.217139 -2.72436,1.937541 -1.57287,1.402543 -2.52304,3.378155 -3.01709,5.395508 -0.36423,1.475227 -0.51263,2.999073 -0.49745,4.518424 0.59444,0.401254 1.0504,1.046761 1.09403,1.777151 0.0736,1.081328 -0.3886,2.095495 -0.61434,3.130576 -0.1878,0.79107 -0.2477,1.666105 0.13732,2.407071 -1.46595,1.442368 -2.44959,3.343534 -4.11588,4.587489 -0.45202,0.339386 -0.95227,0.614775 -1.48482,0.804947 -1.62854,1.64523 -3.71874,2.70312 -5.7223,3.81373 -1.82385,1.00699 -3.66633,2.11051 -4.99642,3.74757 -0.13782,0.17524 -0.30874,0.3409 -0.30305,0.58051 -0.13415,0.81312 0.23058,1.62835 0.83627,2.1675 0.866,0.78623 2.00482,1.19705 3.12869,1.46275 1.11115,0.2433 2.2682,0.35375 3.40331,0.20395 0.0595,0.49725 0.48654,0.84 0.85479,1.13041 0.11351,0.0304 0.21831,-0.14637 0.32094,-0.20804 1.14483,-0.99797 1.68947,-2.49729 2.72841,-3.59507 0.47794,-0.50292 1.12572,-0.85689 1.82417,-0.90589 1.20526,-0.56919 2.62491,-0.71398 3.89911,-0.29149 1.62711,0.52392 2.92947,1.7527 3.88258,3.13765 0.86923,1.27088 1.49413,2.71403 1.80276,4.22369 -0.0531,1.3172 0.46212,2.64345 1.4055,3.5667 1.62647,1.61026 4.18232,2.14874 6.34902,1.47731 0.67426,-0.195 1.275,-0.56623 1.85824,-0.94483 2.87322,-1.7578 6.22613,-2.81281 9.61287,-2.71952 1.15816,0.0281 2.31415,0.18695 3.43551,0.47501 1.93434,1.47285 3.43607,3.45814 5.50802,4.75875 1.10133,0.70114 2.42427,1.122 3.73451,0.91467 0.52872,-0.0808 1.05982,-0.23411 1.53924,-0.47288 1.27159,-1.17165 2.61398,-2.2708 3.75701,-3.5713 0.1896,-0.22653 0.36165,-0.4675 0.60944,-0.63612 2.48057,-2.01841 5.61861,-3.10501 8.77789,-3.41792 0.87064,-0.0927 1.74938,-0.10337 2.62239,-0.0929 1.42119,-0.40193 2.9499,-0.0813 4.24392,0.57108 1.71098,0.87149 3.16246,2.22058 4.23513,3.80709 0.28184,0.41991 0.52909,0.86376 0.73099,1.328 -1.47465,1.94115 -2.28682,4.27843 -3.00352,6.58404 -0.76113,2.43388 -1.46158,4.93924 -2.86226,7.09832 -0.28271,0.43322 -0.58976,0.84919 -0.92554,1.24282 0.17163,1.67265 0.73909,3.27554 1.31831,4.84796 0.81264,2.156145 1.77009,4.253915 2.65663,6.380815 1.2297,-2.42066 2.71799,-4.708275 3.7982,-7.204575 0.98571,-1.7064 1.34014,-3.68571 1.44082,-5.63116 0.15486,-2.7162 -0.11595,-5.4706 0.43232,-8.15406 0.18193,-0.90361 0.48054,-1.78322 0.88392,-2.61108 0.13759,-0.5251 0.68747,-0.77151 1.15822,-0.92653 1.17472,-0.37554 2.47335,-0.48087 3.48779,-1.24223 0.29773,-0.22274 0.54396,-0.51086 0.6994,-0.84884 0.58028,-0.94212 1.37948,-1.72529 2.19477,-2.46303 0.20926,-0.18458 0.42495,-0.36156 0.64423,-0.53426 1.15263,1.21035 1.87354,2.77819 2.21166,4.4046 0.50551,2.40113 0.37036,4.8703 0.39417,7.30755 0.0175,2.29393 0.13139,4.65459 1.04563,6.79008 0.7392,1.54809 1.75229,2.94529 2.80327,4.29306 1.29362,1.62072 2.68755,3.177375 4.30019,4.489875 0.63013,0.48525 1.29924,0.98949 2.08177,1.17654 0.21926,0.0465 0.45897,0.0513 0.66431,-0.05 -0.7017,-0.62749 -1.15673,-1.54414 -1.13326,-2.49484 0.0142,-1.289135 0.61881,-2.470725 1.20851,-3.584395 0.37206,-0.72429 0.83373,-1.41918 1.0441,-2.21328 0.0994,-0.33466 0.0243,-0.76273 -0.318,-0.92597 -0.25699,-0.15246 -0.56656,-0.16171 -0.84738,-0.21921 -1.49998,-0.84715 -2.72156,-2.14756 -3.5337,-3.66068 -1.16012,-2.14105 -1.63285,-4.55798 -2.11915,-6.92056 -0.27223,-1.35405 -0.55812,-2.7068 -0.94687,-4.03072 -0.35242,-2.1335 -1.35501,-4.12608 -2.70846,-5.79677 -0.52546,-0.42113 -1.10606,-0.82931 -1.43248,-1.43473 -0.18486,-0.33523 -0.079,-0.7539 0.17505,-1.0218 0.54404,-0.6039 1.26955,-0.99951 1.93799,-1.44788 0.58457,-0.37233 1.1692,-0.74456 1.74848,-1.12507 1.57326,2.30526 4.06913,3.88322 6.74258,4.59854 0.66305,0.18595 1.34081,0.27829 2.01917,0.37428 0.90681,0.17108 1.78464,0.53433 2.71545,0.52959 0.3561,0.004 0.75213,-0.17115 0.8528,-0.54044 0.1306,-0.43021 0.0248,-0.88521 -0.0677,-1.31052 0.37328,-1.36654 0.10936,-2.79521 0.15463,-4.19018 0.009,-0.55648 0.0728,-1.1147 0.22934,-1.64977 0.21251,0.42782 0.6623,0.70654 1.13379,0.72037 0.92543,0.0344 1.79507,-0.33443 2.66901,-0.59426 0.88138,-0.26617 1.80925,-0.57787 2.73997,-0.40684 0.28128,0.0893 0.57283,-0.0383 0.86096,-0.0432 0.66288,-0.0965 1.34255,-0.0212 1.99847,-0.16522 0.59193,-0.15483 1.12618,-0.46271 1.67154,-0.72833 1.01655,0.16415 2.18191,-0.2139 2.72698,-1.12913 0.39304,-0.65029 0.28009,-1.49081 -0.11499,-2.11193 -0.22979,-0.31872 -0.35258,-0.69756 -0.58809,-1.01129 -0.7915,-1.14576 -2.08288,-1.79836 -3.34682,-2.28724 -1.10654,-0.43377 -2.25041,-0.781361 -3.32203,-1.29573 -1.78035,-0.284578 -3.58195,-0.833784 -5.00356,-1.983198 -0.37626,-0.320733 -0.74605,-0.666988 -1.01195,-1.086294 -0.4385,-0.87802 -0.30716,-1.902584 -0.10597,-2.826552 0.20601,-1.034118 0.54634,-2.105173 0.26781,-3.159466 -0.0819,-0.302281 -0.22069,-0.588489 -0.40457,-0.841933 -0.38923,-0.0949 -0.84863,-0.317373 -0.90175,-0.763339 -0.0482,-0.538208 0.26516,-1.01994 0.50482,-1.477097 0.50874,-0.911429 1.1553,-1.807226 1.28162,-2.871399 0.0672,-0.573196 -0.14145,-1.160028 -0.53952,-1.575096 0.0523,-1.843741 -0.62328,-3.6493 -1.73175,-5.109181 -1.20597,-1.603907 -2.82472,-2.858238 -4.56459,-3.835786 -8.30956,-4.057386 -17.39749,-6.352852 -26.567,-7.351578 -4.21872,-0.464775 -8.46507,-0.658873 -12.70854,-0.643506 z"
         style="fill:#aa0000;stroke-width:0.0508622" />
      <path
         style="fill:#800000;fill-opacity:1;stroke:none;stroke-width:0.264583px;stroke-linecap:butt;stroke-linejoin:miter;stroke-opacity:1"
         d="m 675.24706,53.813612 c 0,0 -1.06907,1.069078 -0.80181,2.271792 0.26728,1.202714 1.60363,2.271791 1.87089,4.142681 0.26728,1.87088 0.93543,3.4745 0.93543,5.21175 0,1.73725 -0.40089,3.60814 -0.13361,4.40995 0.26726,0.80181 0.66815,1.60362 0.93543,2.67269 0.26729,1.06908 -0.26728,3.60814 0.4009,4.81086 0.66818,1.20271 -0.46172,2.4866 1.73725,1.87088 3.34086,-0.93544 3.34088,-0.80181 2.93998,-1.60362 -0.40092,-0.80181 -1.73726,-5.74629 -2.00452,-8.55262 -0.26728,-2.80633 0.26726,-6.81537 -0.66817,-8.55262 -0.93546,-1.73725 -0.53454,-4.142682 -1.60362,-4.944489 -1.0691,-0.801809 -3.60815,-1.737254 -3.60815,-1.737254 z"
         id="path2009" />
      <path
         style="fill:#800000;fill-opacity:1;stroke:none;stroke-width:0.264583px;stroke-linecap:butt;stroke-linejoin:miter;stroke-opacity:1"
         d="m 685.08189,48.291663 c 0,0 -1.22841,-0.283483 -1.13392,4.346725 0.0945,4.630209 -0.28348,11.339287 0.75596,13.323667 1.03942,1.98437 4.06324,5.19717 4.63021,5.48065 0.56695,0.28348 0.85043,-0.18899 0.85043,-0.18899 l 0.47249,-0.37798 c 0,0 -2.55135,-1.32291 -2.83483,-3.49627 -0.2835,-2.17337 -0.94496,-3.49629 -0.37798,-7.74852 0.56698,-4.252227 0.37798,-6.614581 0.47247,-9.354908 0.0945,-2.740326 0.0945,-3.118302 0.0945,-3.118302 0,0 -2.26788,0.944941 -2.92934,1.133928 z"
         id="path2011" />
      <path
         style="fill:#800000;fill-opacity:1;stroke:none;stroke-width:0.264583px;stroke-linecap:butt;stroke-linejoin:miter;stroke-opacity:1"
         d="m 625.36165,29.959819 c 11.71726,-3.401788 26.64733,-8.315476 49.70388,-5.291667 23.05654,3.023809 27.21428,8.126487 29.29316,10.394344 2.07886,2.267858 2.64584,4.913691 1.70088,5.291667 -0.94494,0.377975 -17.57588,6.803572 -27.02529,8.504465 -9.4494,1.700892 -19.65475,3.401784 -9.07142,-1.700893 10.58333,-5.10268 20.59969,-4.913691 22.30059,-8.315476 1.7009,-3.401787 -4.72472,-7.181548 -12.66222,-8.693454 -7.9375,-1.511903 -54.23958,-0.188986 -54.23958,-0.188986 z"
         id="path2013" />
      <path
         style="fill:#800000;fill-opacity:1;stroke:none;stroke-width:0.264583px;stroke-linecap:butt;stroke-linejoin:miter;stroke-opacity:1"
         d="m 698.23224,42.855563 c 4.81086,1.069078 3.8754,4.543581 3.47451,6.013563 -0.4009,1.469983 -0.80182,5.34539 1.20271,7.349913 2.00451,2.004516 8.81989,4.009046 9.62171,4.944486 0.80179,0.93544 2.80633,2.53906 4.40994,2.53906 1.60361,0 3.20723,0.26727 3.20723,-0.53454 0,-0.80181 0.13364,-2.00452 -1.06908,-2.80633 -1.20271,-0.80181 -3.60812,-1.87089 -5.07812,-2.13816 -1.46997,-0.26726 -4.40994,-0.668169 -5.34538,-1.737247 -0.93546,-1.069078 -2.93997,-1.202713 -2.80633,-3.34087 0.13362,-2.138156 1.33634,-4.009043 0.53454,-4.677216 -0.80182,-0.668174 -1.20271,-1.069078 -1.20271,-1.870885 0,-0.801809 2.13815,-3.474506 2.13815,-4.276312 0,-0.801809 -0.66818,-2.405428 -1.33636,-2.271792 -0.66815,0.133633 -2.67269,0.534538 -4.00902,0.801809 -1.33636,0.267269 -3.74179,2.004521 -3.74179,2.004521 z"
         id="path2015" />
      <path
         style="fill:#800000;fill-opacity:1;stroke:none;stroke-width:0.264583px;stroke-linecap:butt;stroke-linejoin:miter;stroke-opacity:1"
         d="m 694.22319,46.864606 c 0,0 -0.26725,0.400904 -0.40089,3.34087 -0.13364,2.939962 0.53453,6.949006 1.60361,8.686259 1.06907,1.73725 2.00454,3.74177 3.47451,4.67722 1.46997,0.93544 4.2763,3.20723 4.40994,4.14267 0.13364,0.93545 1.60361,3.0736 1.60361,4.14268 0,1.06908 0.93546,2.27179 0.93546,1.06908 0,-1.20271 -0.26728,-3.74177 -0.13364,-4.81085 0.13364,-1.06908 1.33636,-1.87089 0,-3.20724 -1.33635,-1.33634 -4.54358,-2.27179 -6.14719,-4.27631 -1.60362,-2.00452 -2.53908,-5.879928 -3.20726,-8.819893 -0.66815,-2.939966 -0.93543,-4.142677 -0.93543,-5.211755 0,-1.069078 -1.20272,0.267269 -1.20272,0.267269 z"
         id="path2017" />
      <path
         id="path2019"
         d="m 691.56407,39.391392 c -0.99185,0.0063 -2.22785,0.156503 -3.76465,0.523999 -6.1472,1.469983 -6.28074,11.091828 -6.28074,11.091828 0,0 -0.0714,1.865037 -0.0837,2.171443 0,0 -0.18656,-1.722982 -0.31731,-2.037601 -2.98847,-7.191483 -6.54802,-7.750852 -8.28527,-8.018113 -1.73726,-0.267272 -9.15392,0.400973 -9.62165,5.545912 -0.4009,4.409948 1.4696,4.543603 2.40503,5.345412 4.34314,2.204971 12.56202,2.204516 12.56202,2.204516 l 1.56321,-0.253214 c -0.75268,0.516948 -0.67482,1.333079 -1.16271,1.723411 -0.66818,0.53454 -3.60778,0.66807 -11.75948,1.60352 -8.15174,0.93544 -20.98064,-0.40061 -24.98972,-0.8015 -4.00904,-0.40091 -11.49284,-3.474732 -14.16553,-4.142903 -2.6727,-0.668176 -8.01812,-3.741481 -8.68629,-4.142383 -0.66818,-0.400907 -4.81056,-2.539074 -6.14691,-2.672707 -0.40091,0.534538 -0.13374,0.668182 -0.40101,1.336352 -0.26727,0.668174 -1.33666,2.405026 0.13333,3.741375 1.46998,1.336347 10.29034,6.949346 15.63574,8.552966 5.34539,1.60362 21.51507,4.00896 27.92955,4.27622 6.41445,0.26728 19.64399,-1.20302 20.44578,-1.20302 0.80182,0 1.87122,-0.40091 2.5394,-0.66818 0.66817,-0.26727 1.73696,-0.13332 2.80601,-0.13332 1.06907,0 4.00918,-1.33667 5.07825,-1.87121 1.06908,-0.53454 7.75086,-2.53897 10.02263,-3.60804 2.27179,-1.069085 7.08287,-3.741588 8.15197,-4.543397 1.06908,-0.801807 1.33604,-1.603733 1.46968,-3.073715 0.13364,-1.469983 -0.66789,-2.138164 -1.46968,-2.672705 -0.80182,-0.534537 -4.67754,2.272007 -5.88026,2.806547 -1.20271,0.534538 -9.35447,4.008853 -11.35901,4.543393 -2.00451,0.534538 -1.87047,0.935546 -2.40501,0.401008 -0.30149,-0.301496 -1.03685,-0.301326 -1.99678,-0.19947 1.04825,-0.524332 4.2047,-2.233631 8.54472,-5.814115 5.34527,-4.409948 3.4745,-7.350149 3.34086,-8.151958 -0.10022,-0.601358 -0.87701,-1.879145 -3.85246,-1.860351 z m -0.69094,3.597714 c 0.66818,0 0.33372,1.135954 -0.0672,2.205032 -0.40093,1.069078 -1.0019,2.605992 -1.26918,3.073715 -0.26723,0.467719 -2.53942,2.071039 -3.40805,2.80603 -0.86863,0.734989 -2.00453,1.136364 -2.00453,1.136364 0,0 3.1e-4,-4.276695 1.87121,-6.080765 1.87089,-1.804069 4.20955,-3.140376 4.87772,-3.140376 z m -19.69852,4.461224 c 0.24228,0.0062 0.48387,0.03257 0.72192,0.08268 2.53905,0.534538 6.68173,3.407505 7.14944,6.547922 0.46773,3.140419 -2.60554,-0.200504 -2.60554,-0.200504 0,0 -4.0758,-1.069137 -5.61258,-1.536859 -1.5368,-0.46772 -3.60831,-0.801711 -3.9424,-1.603518 -0.33409,-0.801809 -0.46767,-1.536859 -0.46767,-1.536859 0,0 2.25075,-1.688401 4.51445,-1.752346 0.0809,-0.0023 0.16161,-0.0026 0.24238,-5.18e-4 z m 12.96356,15.925645 c -0.10129,-0.0157 -0.19762,0.0595 -0.28115,0.25993 0,0 -0.66805,2.80594 -0.26715,4.40955 0.40092,1.60362 1.20245,3.40817 2.33836,4.47725 1.13588,1.06907 4.67725,3.54124 4.87773,6.28075 0.20044,2.73951 -0.0666,9.15376 0.80203,12.361 0.8686,3.20723 2.80601,5.87996 3.47419,6.68177 0.66818,0.8018 3.94266,3.808455 4.27675,4.075715 0.33409,0.26727 -0.0669,-0.60095 0.26718,-1.73685 0.33409,-1.135885 1.40321,-4.610735 1.53685,-5.212085 0.13362,-0.60135 0.66821,-0.46782 -0.46767,-1.06918 -1.13589,-0.60136 -4.74411,-4.14256 -5.54593,-8.08478 -0.80177,-3.94223 -1.60362,-10.02229 -4.00905,-12.62817 -2.40541,-2.60588 -4.61073,-3.87583 -5.21208,-4.94491 -0.60137,-1.06907 -0.66807,-2.20478 -0.93535,-3.20704 -0.20045,-0.7517 -0.55095,-1.61597 -0.85471,-1.66295 z m -2.82311,0.0951 c -0.0929,-0.002 -0.18105,0.0479 -0.26458,0.16485 0,0 -0.93501,5.81315 -1.73683,8.68629 -0.80182,2.87315 -2.73987,5.27866 -3.87575,7.55045 -1.13591,2.27179 -1.5367,5.34521 -2.93987,8.55245 -1.40316,3.20724 -2.80604,5.07824 -2.80604,5.07824 l 3.3409,9.688285 c 0,0 4.14229,-7.416705 4.40954,-9.153955 0.26729,-1.73725 -0.26685,-5.07815 0.26768,-8.68629 0.53454,-3.60814 1.67034,-7.41661 2.27172,-8.75295 0.60134,-1.33635 2.1382,-5.74628 2.20503,-7.14944 0.0668,-1.40317 0.66786,-4.20941 0.13333,-4.9444 -0.40093,-0.55124 -0.72636,-1.02727 -1.00513,-1.03353 z"
         style="fill:#ffffff;stroke:none;stroke-width:0.264583px;stroke-linecap:butt;stroke-linejoin:miter;stroke-opacity:1" />
      <path
         id="path2021"
         d="m 662.54981,23.49727 c -1.89405,-0.0026 -3.78556,0.03804 -5.66942,0.117825 -8.52368,-0.09275 -16.88727,1.366797 -25.13077,3.528983 -6.06552,1.814565 -12.30648,3.794815 -17.29352,7.662579 -3.10624,2.509007 -3.86876,6.951073 -3.82716,10.20558 2.72944,1.920298 -0.61177,4.835258 0.61134,7.295679 -1.76114,1.712838 -2.98792,4.457702 -5.58312,5.375379 -3.20671,3.25095 -8.26379,4.21298 -10.98641,7.90546 -0.76027,3.24097 4.64279,4.50369 7.3241,4.12275 0.3251,1.04589 1.19712,2.10353 1.19712,2.10353 1.99778,-1.4614 3.42137,-3.58355 5.03417,-5.40226 4.7867,-2.20172 8.2294,2.52564 9.07837,6.76053 -0.13195,4.64399 5.71704,6.7313 9.23509,4.38268 3.94267,-2.53205 8.67692,-3.71511 13.43638,-2.50682 3.07668,2.28611 6.08592,7.34592 10.79264,5.21984 1.57039,-1.4315 3.19207,-2.79312 4.10464,-3.98994 3.14656,-2.71644 7.51348,-3.87229 11.64583,-3.73569 3.79507,-1.07733 7.96782,2.79174 9.20096,5.66994 -3.39468,4.49438 -3.13447,10.64457 -6.7882,14.92001 0.26164,3.05639 2.62723,7.974755 3.99976,11.300085 1.2201,-2.42401 2.67041,-4.603685 3.81113,-7.231595 2.89383,-5.02385 0.22548,-11.32987 2.76366,-16.39538 0.35134,-1.49856 3.89419,-0.85922 5.21104,-2.77502 0.40281,-0.89946 1.80713,-2.34894 2.95331,-3.24063 4.53924,4.84837 1.13168,12.67326 3.63027,18.47639 1.62787,3.56945 8.0333,10.957365 9.91981,9.906365 -4.00595,-3.658215 4.03061,-9.139125 -0.0558,-9.454205 -5.29278,-3.02233 -5.05852,-9.50855 -6.60117,-14.55518 -0.72337,-4.46658 -4.01852,-7.68641 -7.39849,-10.31668 -0.64492,-1.8658 -2.38342,-4.56423 -1.21544,-6.26887 1.61885,-1.48115 3.39262,-0.97593 5.68907,-2.06964 4.56348,-2.927176 3.52774,1.47791 5.62755,3.85661 -0.61396,-3.54005 2.06727,1.41754 3.53208,1.78852 1.64381,2.14841 -7.2808,-0.45899 -8.93072,1.97973 -4.4927,3.23734 -0.14401,1.90962 2.37506,0.19275 1.96348,2.88079 5.40832,4.60061 8.59843,4.932 1.72704,0.29175 4.45029,1.64731 3.69642,-1.31 0.50524,-1.76097 -0.16016,-3.95342 0.36793,-5.78052 1.11479,1.93973 4.56123,-0.9134 6.70605,-0.27699 2.61037,-0.38423 2.08073,0.21675 4.35477,-0.9803 2.05502,0.31986 3.97452,-1.47499 2.46137,-3.55069 -1.20827,-2.78143 -4.69601,-3.13914 -7.06988,-4.332551 -1.70291,-0.260752 -4.47344,-0.959318 -5.98929,-2.988966 -1.15237,-2.18091 1.22658,-4.826437 -0.28575,-6.909655 -2.98863,-0.772496 2.60876,-4.219672 0.35499,-6.674011 0.0806,-4.028995 -2.93614,-7.048161 -6.26163,-8.934855 -11.97274,-5.853583 -25.3683,-8.004204 -38.62657,-8.022767 z m -2.99363,1.029912 c 0.47413,-0.0016 0.94845,-5.29e-4 1.42266,0.0031 8.34628,0.06418 16.70095,0.933836 24.86205,2.996715 3.79566,0.500219 7.20717,2.21619 10.50325,3.278355 1.37927,1.03111 3.78166,1.840486 5.03586,3.062345 1.63169,1.370285 5.29527,3.253806 3.79667,5.821865 -5.91788,3.742865 -0.47543,0.969084 1.21285,1.68827 0.0864,2.151401 -1.40145,3.985439 -2.05415,5.705078 -3.48813,2.010849 -7.59066,3.930639 -11.33729,5.500438 -2.02501,1.294099 -5.17535,0.971243 -6.51639,2.313038 -1.23616,-0.163748 2.67292,-3.073749 4.18113,-3.408061 2.5337,-2.739472 7.28017,-6.391947 4.8674,-10.629841 -3.50856,-4.040212 -11.10522,-1.407015 -12.84935,3.302124 -1.05947,1.286187 -0.74864,6.680811 -1.95387,5.162476 -1.37742,-5.333026 -7.43376,-7.826447 -12.52329,-6.051309 -4.4528,0.15377 -6.85667,6.164008 -4.80898,9.769427 3.71305,4.124081 10.6037,2.774114 14.82648,4.097941 -6.59662,0.613282 -13.56537,1.769712 -20.34347,1.608682 -13.38247,0.33942 -26.75851,-2.62274 -38.48447,-9.164809 -1.97995,-1.991241 -5.99229,-1.633458 -7.12412,-4.332552 -0.53333,-1.593025 -0.57125,-6.43803 1.42369,-2.441194 5.25896,2.007155 0.43339,-0.294468 -0.53227,-3.179136 0.23703,-2.375987 2.79172,-4.835916 5.21157,-5.617228 3.5716,-1.094997 6.62071,-3.427188 10.17406,-4.37751 6.6826,-2.319528 13.99402,-3.627382 21.07572,-4.729943 3.2997,-0.233881 6.61538,-0.36793 9.93426,-0.378271 z m 32.37788,15.515849 c 1.14157,-0.0021 2.27211,0.359669 2.82617,1.759582 v 0 c -2.07645,0.100203 -8.62896,0.914583 -9.89189,5.270479 -0.50115,2.463171 -2.4741,5.258922 -1.78644,7.124631 -1.3126,1.452285 -0.41122,-3.029045 -0.51213,-4.181141 -0.50784,-4.25368 1.80901,-9.125191 6.47403,-9.552387 0.59751,-0.05364 1.74972,-0.419142 2.89129,-0.421164 z m 0.99219,3.039092 c 0.45786,0.01619 1.04338,0.221125 1.80919,0.680577 -1.62753,4.377401 -5.06849,7.474995 -9.2289,9.585978 0.72792,-2.213914 3.14325,-3.295814 4.40491,-5.225002 1.44606,-1.640112 1.03074,-5.11175 3.0148,-5.041553 z m -2.63446,0.610814 c 0.88818,3.606236 -3.43874,5.289505 -5.32424,7.562847 -0.076,-3.264352 2.16964,-6.605492 5.32424,-7.562847 z m -19.38591,0.02842 c 0.87442,-0.0021 1.73405,0.126023 2.51923,0.393776 5.69896,-0.235929 6.21053,6.721158 7.36494,10.730611 v 0 l 0.092,0.157612 c -2.48605,-1.836581 -3.97584,-8.649078 -9.15553,-7.862569 -4.04937,-2.994983 -7.88101,6.971746 -8.21396,3.285071 -0.46639,-4.229965 3.60468,-6.694884 7.39386,-6.704501 z m 1.31259,0.18397 c -0.28421,-0.01122 -0.32816,0.113302 0.13589,0.01394 -0.0496,-0.0082 -0.0953,-0.01236 -0.13589,-0.01394 z m 32.89618,1.777669 c 0.25617,0.09653 -0.1846,0.157948 0,0 z m -34.339,2.577618 c 3.28049,0.03284 6.4816,1.976483 7.25125,5.392955 0.56282,1.337468 -1.46106,-0.511831 -1.79885,-0.646991 -2.637,-1.394812 -8.42875,-0.680387 -9.19893,-3.880382 1.16703,-0.598445 2.46288,-0.87843 3.74653,-0.865582 z m -57.6714,0.262001 c 2.78268,0.202108 5.28524,2.895717 8.14162,3.723804 5.0156,3.362995 11.08656,4.131432 16.65739,6.178436 11.86976,2.46722 24.17329,2.52398 36.19003,0.99115 3.91964,-2.681125 4.30567,1.65921 5.32783,2.85874 -0.21058,0.1312 -0.78954,0.70382 -1.69394,1.15962 -4.25982,0.50578 -9.16813,1.14652 -13.70616,1.01648 -9.4746,1.23199 -18.85246,-0.89171 -28.15227,-2.30115 -4.8272,-1.83553 -9.83888,-3.07957 -14.55002,-5.242579 -2.95976,-2.201093 -10.61264,-3.406471 -8.21448,-8.384501 z m 69.23038,0.211873 c 0.0968,0.146519 -0.17475,0.118666 0,0 z m 22.4653,0.186034 c 0.38973,-0.01035 0.80973,0.21403 0.95861,0.88832 -0.40918,0.678638 0.046,1.262724 -0.22892,1.918745 -3.81513,3.609737 -9.18411,5.848117 -14.14179,7.861018 -4.39814,2.4937 -3.25208,-0.35282 -3.87263,-3.530016 4.47913,-1.770367 9.02512,-3.689276 13.44414,-5.69681 1.40743,-0.179845 1.93022,-0.232286 3.12849,-0.695047 -0.23993,-0.331433 0.21106,-0.732896 0.7121,-0.74621 z m -39.07459,1.390613 c 2.57344,3.167459 7.23108,2.683232 10.64275,4.602305 1.71958,0.783773 -2.94272,0.702639 -3.38325,0.191718 -2.54378,-0.221012 -9.56411,-0.521666 -7.2595,-4.794023 z m -24.37268,1.197861 c -1.93776,-0.01765 -1.84269,0.486241 2.73367,1.295527 5.95877,0.467318 12.53535,1.006245 18.0847,-0.810286 -5.22351,-0.406397 -11.5434,0.338074 -17.14624,-0.117822 -1.49069,-0.243975 -2.79136,-0.359402 -3.67213,-0.367419 z m -28.82822,2.478403 c 0.6705,0.0062 1.38892,0.340855 2.18643,1.1498 4.13328,1.279818 1.25973,3.469386 -0.0186,5.624466 2.10653,0.14812 3.60281,-3.897978 5.93039,-2.16008 5.05673,0.89415 -0.13274,2.60059 0.62631,5.97587 1.32283,4.4526 1.145,-6.55827 4.71393,-3.74706 5.66849,1.63142 11.28882,3.58552 17.16742,4.30516 2.31814,0.8055 -1.51035,4.82212 -0.31367,7.29051 2.93473,3.66219 -0.35187,-11.19316 5.81927,-6.35878 -3.15028,5.96369 0.83148,-1.28536 0.41135,3.85092 2.68653,6.66863 1.29524,-0.29946 0.77981,-3.50676 6.18485,-2.20487 2.92558,4.81622 1.6588,8.15919 2.52079,-1.40249 3.01377,-5.11072 3.41633,-7.71374 5.76704,-1.44006 12.86433,-0.41591 19.04844,-1.49293 5.33609,-2.61889 0.66572,5.26758 3.91348,7.35252 0.41627,1.0862 -0.75579,2.56149 -1.41492,3.43132 -1.95635,-3.07932 -5.28775,-5.28586 -9.10589,-5.33456 -6.99535,-0.14433 -12.92956,4.11523 -17.94413,8.30182 -5.15231,1.21456 -6.47652,-5.91615 -11.11406,-6.34122 -3.80386,-1.40947 -7.81644,0.4392 -10.49857,2.53525 -2.21199,1.63619 -6.0664,3.56056 -8.00778,0.50901 -0.8742,-3.67183 -2.59376,-7.17896 -5.3883,-9.62422 -4.08255,-1.61169 -2.80423,-2.28814 -0.48576,-4.71237 -4.47635,3.44571 -10.41816,4.56996 -15.99592,5.32061 -4.75519,-0.98766 4.96474,-4.92629 6.07818,-6.29316 3.62772,-0.41121 5.63193,-6.548628 8.53746,-6.521566 z m 65.59858,0.117303 c 0.0233,-0.0071 0.0663,0.005 0.13745,0.04909 0.03,0.366033 -0.23894,-0.01834 -0.13745,-0.04909 z m 27.07947,0.09147 c 0.45109,-0.01688 0.85286,0.148495 1.18494,0.575675 2.79233,4.833708 10.10864,2.867552 13.17439,7.499288 -0.35044,2.26883 -6.10851,-0.56497 -8.49508,-0.0966 -2.17612,0.091 -3.19929,1.02955 -4.28913,2.22467 -1.24198,1.43391 -1.95948,3.12923 -2.39729,4.03903 -0.62007,-1.5671 -0.18933,-1.70553 -0.73276,-2.23035 -1.27413,-1.10597 -2.18702,-2.48478 -4.18322,-3.11661 -1.01664,-1.08938 -4.24683,-4.34761 -1.2242,-4.89686 2.12907,-0.43124 5.00769,-3.92507 6.96235,-3.998203 z m -18.21696,0.540017 c 0.18129,0.125442 -0.18611,0.0615 0,0 z m -3.77237,1.746666 c 0.15001,0.01019 0.27371,0.05707 0.39531,0.137458 1.28257,-0.193235 2.16252,-0.279587 2.91817,2.021062 0.34351,1.70257 -1.5688,2.56036 -2.85925,3.11403 -1.73749,1.56738 -4.23968,-1.2398 -3.97806,-2.49494 -0.31687,-1.069 0.70374,-1.5527 1.44642,-2.083079 0.98949,-0.440603 1.53911,-0.659784 1.9177,-0.692465 0.0568,-0.0049 0.10967,-0.0055 0.15971,-0.0021 z m 28.37553,0.337962 c 0.0365,0.0127 -0.0806,0.09054 -0.0972,0.01707 0.0557,-0.01826 0.085,-0.02127 0.0972,-0.01707 z m 0.49815,5.397088 c 0.14087,0.006 -0.0755,0.1272 -0.0842,0.006 0.0363,-0.005 0.0641,-0.006 0.0842,-0.006 z m -82.22444,0.22066 c -1.70981,0.0433 -2.94486,2.24729 -4.9289,3.17345 -6.52787,2.03734 2.75304,1.31016 4.00492,-1.55495 0.0486,2.39309 -0.35205,4.27604 -1.41542,6.46007 0.6634,3.35597 2.84327,-4.91261 2.57194,-7.7189 v -5.3e-4 l -0.0656,-0.35657 c -0.0562,-0.003 -0.11176,-0.004 -0.16691,-0.003 z m 82.596,1.18184 c 1.18747,0.028 3.1369,0.28727 4.00182,0.58188 1.08995,0.43515 -2.88123,0.65426 -3.43339,0.22324 -2.18165,-0.63005 -1.75594,-0.83313 -0.56843,-0.80512 z m -32.29055,0.35915 c -0.0262,1.12977 0.0138,2.31438 -0.324,3.41323 -0.38204,4.19955 -2.61986,6.50751 -2.26756,0.74569 1.75445,-1.38744 -0.48954,-3.03917 2.59156,-4.15892 z m 21.31343,0.24236 c 0.18852,0.13046 -0.18248,0.19555 0,0 z m -28.98169,1.0697 c 0.0611,0.0297 0.0146,0.2234 -0.0987,0.045 0.0457,-0.0464 0.0783,-0.0548 0.0987,-0.045 z m -0.35295,0.0176 c 0.30925,0.16551 -0.11433,0.0637 0,0 z m 12.38943,0.73432 c 1.86645,5.23869 7.93184,7.5432 8.73022,13.50926 0.78084,5.18529 2.03623,11.66767 6.79646,14.63166 0.6768,0.5563 -0.37431,1.29701 -0.29041,1.92391 -0.15028,4.833835 -0.70432,6.257255 -4.24521,1.3777 -5.43886,-5.42243 -2.42142,-13.80621 -4.61058,-20.37085 -1.9,-4.10178 -7.79637,-5.43464 -6.38048,-11.07168 z m -3.2241,0.74518 c 0.0606,-0.005 0.12252,0.0366 0.18552,0.13229 0.0946,5.87453 -3.02223,10.79604 -4.0871,16.39951 -0.74107,6.29536 -0.51718,13.01902 -4.29326,18.462965 -0.15388,-2.879905 -1.85899,-5.524475 -2.38487,-8.206735 2.26443,-2.19574 2.67822,-5.54692 3.66231,-8.40828 0.97221,-4.69496 4.6319,-7.99734 5.40329,-12.75632 0.44828,-1.22422 0.92803,-5.57785 1.51411,-5.62343 z m -77.65159,0.22376 c 0.65631,2.20948 -4.60465,1.55946 -6.39599,1.43557 -4.19283,-1.78498 5.4045,0.1817 6.39599,-1.43557 z m 94.02474,0.80201 c 2.55487,-0.004 7.00241,1.3372 6.58617,4.17391 -1.44031,0.84642 -5.1893,-1.27586 -7.00836,-2.32544 -2.18808,-1.21358 -1.32586,-1.8458 0.42219,-1.84847 z m -14.86318,0.48938 c 0.73943,0.22804 1.35112,5.03569 3.76465,5.69681 0.45731,0.26666 -0.0737,0.67786 -0.25013,0.90589 -1.30109,2.32638 -3.9814,3.85468 -6.45748,4.16512 0.23805,-3.59643 3.09176,-6.9637 2.94296,-10.76782 z"
         style="fill:#000000;stroke-width:0.0508622" />
      <path
         style="fill:#000000;fill-opacity:1;stroke:none;stroke-width:0.3;stroke-linecap:butt;stroke-linejoin:round;stroke-miterlimit:4;stroke-dasharray:0.3, 0.899999;stroke-dashoffset:0;stroke-opacity:0.627451"
         d="M 709.90914,127.03774 751.6428,102.2492 v 18.81372 l -41.73366,28.09365 z"
         id="path2023" />
      <path
         style="opacity:0.678;fill:#ffffff;stroke:none;stroke-width:0.264583px;stroke-linecap:butt;stroke-linejoin:miter;stroke-opacity:1"
         d="m 611.56553,74.749995 c -10.58335,14.3631 -17.3869,20.41071 -17.00892,42.333335 0.37798,21.92261 13.98511,39.30952 21.16667,43.84523 -12.85121,-19.27678 -15.54299,-28.53832 -16.25299,-44.60119 -0.70999,-16.06287 0.75594,-20.788685 12.09524,-41.577375 z"
         id="path2067" />
      <path
         id="path2069"
         d="M 608.61603,127.03774 566.88236,102.2492 v 18.81372 l 41.73367,28.09365 z"
         style="fill:#000000;fill-opacity:1;stroke:none;stroke-width:0.3;stroke-linecap:butt;stroke-linejoin:round;stroke-miterlimit:4;stroke-dasharray:0.3, 0.899999;stroke-dashoffset:0;stroke-opacity:0.627451" />
    </g>
  </g>
</svg>
